<?xml version="1.0" encoding="UTF-8" standalone="no"?>
<!-- Created with Inkscape (http://www.inkscape.org/) -->

<svg
   width="210mm"
   height="297mm"
   viewBox="0 0 210 297"
   version="1.1"
   id="svg1"
   sodipodi:docname="Party Box.svg"
   inkscape:version="1.3.2 (091e20e, 2023-11-25, custom)"
   inkscape:export-filename="Party Box.jpg"
   inkscape:export-xdpi="96"
   inkscape:export-ydpi="96"
   xmlns:inkscape="http://www.inkscape.org/namespaces/inkscape"
   xmlns:sodipodi="http://sodipodi.sourceforge.net/DTD/sodipodi-0.dtd"
   xmlns="http://www.w3.org/2000/svg"
   xmlns:svg="http://www.w3.org/2000/svg">
  <sodipodi:namedview
     id="namedview1"
     pagecolor="#ffffff"
     bordercolor="#000000"
     borderopacity="0.25"
     inkscape:showpageshadow="2"
     inkscape:pageopacity="0.0"
     inkscape:pagecheckerboard="0"
     inkscape:deskcolor="#d1d1d1"
     inkscape:document-units="mm"
     inkscape:zoom="2.9757807"
     inkscape:cx="415.01714"
     inkscape:cy="365.11427"
     inkscape:window-width="2560"
     inkscape:window-height="1377"
     inkscape:window-x="-8"
     inkscape:window-y="-8"
     inkscape:window-maximized="1"
     inkscape:current-layer="layer1" />
  <defs
     id="defs1">
    <rect
       x="522.55194"
       y="225.48704"
       width="125.6813"
       height="28.899979"
       id="rect88" />
    <rect
       x="511.83476"
       y="233.81866"
       width="138.77043"
       height="53.227013"
       id="rect19" />
    <rect
       x="385.4206"
       y="335.04504"
       width="53.702254"
       height="14.732477"
       id="rect12" />
    <inkscape:perspective
       sodipodi:type="inkscape:persp3d"
       inkscape:vp_x="-21.238717 : 139.87551 : 1"
       inkscape:vp_y="0 : 1000 : 0"
       inkscape:vp_z="220.30654 : 139.87551 : 1"
       inkscape:persp3d-origin="99.53391 : 90.375511 : 1"
       id="perspective9" />
  </defs>
  <g
     inkscape:label="Layer 1"
     inkscape:groupmode="layer"
     id="layer1">
    <ellipse
       style="fill:#140e94;fill-opacity:1;stroke-width:0.264583"
       id="path9"
       cx="98.958076"
       cy="91.225014"
       rx="27.914478"
       ry="6.0984335"
       inkscape:export-filename=".\party game.jpg"
       inkscape:export-xdpi="96"
       inkscape:export-ydpi="96" />
    <path
       style="fill:#090823;fill-opacity:1;stroke-width:0.244396"
       d="m 71.798535,87.7552 c 0.134013,1.251263 0.0016,2.515942 0.04714,3.77082 0.02312,0.637365 0.349434,2.971694 0.225781,3.752427 -0.01089,0.06866 -0.07299,0.091 -0.08386,0.15966 -0.03076,0.194202 0.05259,0.407658 0.02183,0.601862 -0.01089,0.06866 -0.07299,0.091 -0.08387,0.159659 -0.03845,0.24275 0.04279,0.502441 0.02729,0.752322 -0.01706,0.275021 -0.114334,1.343661 -0.213387,1.532233 -0.01977,0.03764 -0.06955,-0.02844 -0.08932,0.0092 -0.04939,0.09402 -0.08061,0.511126 -0.156812,0.62025 -0.07187,0.102921 -0.190641,0.07514 -0.262512,0.178047 -0.05082,0.07277 -0.02067,0.253841 -0.07841,0.310124 -0.07745,0.07553 -0.181451,-0.01091 -0.267969,0.02758 -0.06449,0.02872 -0.108702,0.140144 -0.173188,0.168856 -0.447302,0.199177 -1.44454,0.109395 -1.724434,-0.577628 -0.171467,-0.420881 -0.08403,-0.68581 -0.13299,-1.194526 -0.09276,-0.963982 -0.255833,-1.898323 -0.103709,-2.858832 0.0364,-0.229775 -0.05316,-0.518068 -0.02729,-0.752326 0.0122,-0.110463 0.06934,-0.19881 0.07841,-0.310123 0.08209,-1.007783 -0.137901,-2.145391 -0.114626,-3.159767 0.01175,-0.512053 0.112313,-1.010984 0.124064,-1.523039 0.01287,-0.560801 -0.01567,-1.112388 0.02928,-1.664307 0.02562,-0.3145 0.290748,-1.3578 0.392031,-1.550622 0.06251,-0.118999 0.190641,-0.07513 0.262513,-0.178051 0.05082,-0.07277 0.0342,-0.225974 0.07841,-0.310123 0.109682,-0.208811 0.627972,-0.215669 0.709128,-0.224022 0.909114,-0.09358 1.463458,0.79801 1.516505,2.260326 z"
       id="path10" />
    <rect
       style="fill:#090823;fill-opacity:1;stroke-width:0.202926"
       id="rect10"
       width="2.640559"
       height="3.772227"
       x="97.197708"
       y="96.569" />
    <ellipse
       style="fill:#121219;fill-opacity:1;stroke-width:0.264583"
       id="path12"
       cx="95.374466"
       cy="90.281967"
       rx="5.0925064"
       ry="2.514818" />
    <text
       xml:space="preserve"
       transform="scale(0.26458333)"
       id="text12"
       style="white-space:pre;shape-inside:url(#rect12);display:inline;fill:#121219;fill-opacity:1" />
    <text
       xml:space="preserve"
       style="font-size:3.175px;white-space:pre;inline-size:15.8791;display:inline;fill:#121219;fill-opacity:1;stroke-width:0.264583"
       x="107.0055"
       y="91.287888"
       id="text13"
       transform="matrix(1.2640934,0,0,1.4356378,-61.246416,-40.100407)"><tspan
         x="107.0055"
         y="91.287888"
         id="tspan2"><tspan
           style="fill:#f2edf0"
           id="tspan1">Speaker 
</tspan></tspan></text>
    <path
       style="fill:#f2edf0;fill-opacity:1;stroke-width:0.264583"
       d="m 93.048263,89.276035 c -0.251481,-0.12574 -0.548409,-0.185901 -0.754446,-0.377221 -0.917906,-0.852342 -2.137595,-2.607578 -2.137595,-3.897969"
       id="path14" />
    <path
       style="fill:#f2edf0;fill-opacity:1;stroke-width:0.264583"
       d="M 95.311599,89.024554 C 94.43727,87.327826 94.305672,85.474875 94.305672,83.617696"
       id="path15" />
    <path
       style="fill:#f2edf0;fill-opacity:1;stroke-width:0.264583"
       d="m 98.455122,89.904741 c 0,-2.542487 -0.14137,-1.187077 0.377221,-3.520744 0.156991,-0.706454 -0.03082,-0.472141 0.251484,-0.754447"
       id="path16" />
    <path
       style="fill:#f2edf0;fill-opacity:1;stroke-width:0.264583"
       d="m 97.826416,91.539371 c 1.034177,-0.155395 2.643364,3.143523 3.017784,3.143523"
       id="path17" />
    <path
       style="fill:#f2edf0;fill-opacity:1;stroke-width:0.264583"
       d="m 95.43734,91.41363 c -0.533247,0.956956 -1.224227,1.780165 -2.137596,2.389079"
       id="path18" />
    <path
       style="fill:#f2edf0;fill-opacity:1;stroke-width:0.264583"
       d="M 92.922523,90.659187 C 92.113382,92.99463 88.326792,89.9738 86.886959,91.41363"
       id="path19" />
    <text
       xml:space="preserve"
       transform="scale(0.26458333)"
       id="text19"
       style="white-space:pre;shape-inside:url(#rect19);display:inline;fill:#f2edf0;fill-opacity:1" />
    <text
       xml:space="preserve"
       style="font-size:3.175px;fill:#1b1318;fill-opacity:1;stroke-width:0.264583"
       x="49.164673"
       y="115.55589"
       id="text20"><tspan
         sodipodi:role="line"
         id="tspan20"
         style="fill:#1b1318;fill-opacity:1;stroke-width:0.264583"
         x="49.164673"
         y="115.55589">Party Box</tspan><tspan
         sodipodi:role="line"
         style="fill:#1b1318;fill-opacity:1;stroke-width:0.264583"
         x="49.164673"
         y="119.52464"
         id="tspan21">Plays music for short random time</tspan><tspan
         sodipodi:role="line"
         style="fill:#1b1318;fill-opacity:1;stroke-width:0.264583"
         x="49.164673"
         y="123.49339"
         id="tspan24">while having some kind of circular carousel movement.</tspan><tspan
         sodipodi:role="line"
         style="fill:#1b1318;fill-opacity:1;stroke-width:0.264583"
         x="49.164673"
         y="127.46214"
         id="tspan25">Movement stops when music stops.</tspan><tspan
         sodipodi:role="line"
         style="fill:#1b1318;fill-opacity:1;stroke-width:0.264583"
         x="49.164673"
         y="131.43089"
         id="tspan26">Sensor on top which stops the device if you put hand on the top</tspan></text>
    <rect
       style="fill:#1b1318;fill-opacity:1;stroke-width:0.235779"
       id="rect26"
       width="3.3950045"
       height="23.639288"
       x="98.455124"
       y="66.768417" />
    <path
       style="fill:#1b1318;fill-opacity:1;stroke-width:0.264583"
       id="path26"
       d="m 60.682261,92.79117 c -0.537716,-1.362622 -0.865251,-2.79805 -1.144458,-4.232537 -0.249706,-1.215628 -0.39026,-2.449591 -0.35166,-3.69044 0.04589,-0.924131 0.272825,-1.820187 0.547428,-2.699043 0.253344,-0.867537 0.774956,-1.602806 1.289381,-2.332133 0.864703,-1.095348 1.830207,-2.106787 2.88627,-3.018012 0.896043,-0.726951 1.857791,-1.361686 2.84961,-1.948474 0.924338,-0.551235 1.912628,-0.97173 2.894415,-1.406162 0.832834,-0.340585 1.649537,-0.724789 2.499355,-1.022004 0.516067,-0.175609 1.030285,-0.361579 1.570291,-0.446251 0.366297,-0.103402 0.751623,-0.0979 1.122529,-0.171868 0,0 -3.265167,-2.276891 -3.265167,-2.276891 v 0 c -0.362244,0.06956 -0.72853,0.116637 -1.088879,0.196462 -0.538507,0.128471 -1.056072,0.32721 -1.574295,0.519927 -0.834432,0.330663 -1.645883,0.7152 -2.470883,1.068316 -0.994651,0.437584 -1.992365,0.867196 -2.914266,1.449509 -1.004927,0.604787 -1.98592,1.249551 -2.877828,2.015104 -1.052264,0.952757 -2.014088,1.999774 -2.916259,3.095313 -0.567327,0.743333 -1.181092,1.485881 -1.429647,2.40562 -0.258463,0.919065 -0.47449,1.85275 -0.551013,2.806822 -0.0084,0.184071 -0.02463,0.367951 -0.02506,0.552209 -0.0026,1.096174 0.192921,2.180318 0.403535,3.251494 0.284834,1.414267 0.603914,2.821816 0.976624,4.215709 z" />
    <path
       style="fill:#1b1318;fill-opacity:1;stroke-width:0.264583"
       id="path27"
       d="m 70.319222,68.991651 c -0.984435,-0.350959 -2.021718,-0.519414 -3.044849,-0.715732 -0.571958,-0.106527 -1.136981,-0.245586 -1.702977,-0.379204 0,0 3.076157,2.34065 3.076157,2.34065 v 0 c 0.557749,0.119002 1.115343,0.238988 1.675683,0.345374 1.049123,0.211005 2.1132,0.413684 3.09563,0.853524 z" />
    <path
       style="fill:#1b1318;fill-opacity:1;stroke-width:0.264583"
       id="path28"
       d="m 72.019643,70.794495 c -0.256246,0.934858 -0.510418,1.870671 -0.780375,2.801705 -0.153794,0.612974 -0.484418,1.153467 -0.701535,1.741257 -0.117366,0.28188 -0.204068,0.574993 -0.296391,0.865616 0,0 3.434723,1.885239 3.434723,1.885239 v 0 c 0.08987,-0.283261 0.172238,-0.569757 0.289451,-0.843402 0.236495,-0.594844 0.528987,-1.169125 0.675053,-1.7971 0.250285,-0.927643 0.468593,-1.868617 0.839274,-2.758104 z" />
    <path
       style="fill:#1b1318;fill-opacity:1;stroke-width:0.264583"
       id="path29"
       d="m 70.218291,70.263543 c -1.184148,-0.293926 -2.308857,-0.79674 -3.405481,-1.323107 -0.204957,-0.107321 -0.412353,-0.210111 -0.61487,-0.321966 -0.177083,-0.09781 -0.699281,-0.407173 -0.523614,-0.306846 0.951791,0.5436 1.898986,1.095235 2.85201,1.63667 0.12708,0.0722 -0.249322,-0.152601 -0.374007,-0.228861 -0.373314,-0.228328 -0.225824,-0.138526 -0.569589,-0.346679 -0.308732,-0.196879 -0.62873,-0.374758 -0.913808,-0.605237 -0.911968,-0.353816 -8.378639,-4.976997 -0.411482,-0.21699 0.01818,0.01085 -0.04379,0.01146 -0.05704,0.02796 -0.02872,0.03581 -0.04229,0.08149 -0.06344,0.122232 -0.05398,0.160882 -0.08309,0.106786 -0.0043,0.184237 0,0 -3.221471,-2.335733 -3.221471,-2.335733 v 0 c -0.18301,0.07174 -0.08599,0.01368 -0.261655,0.215825 -0.05486,0.119198 -0.155995,0.288851 -0.08861,0.330666 1.140278,0.707594 2.315134,1.3579 3.47594,2.031286 0.07246,0.04203 0.29962,0.14946 0.227211,0.107349 -1.095584,-0.637132 -2.193978,-1.26942 -3.290964,-1.904129 0.1465,0.07146 0.237201,0.163599 0.365837,0.260649 0.185758,0.140141 0.408416,0.224186 0.590195,0.370731 1.921145,1.162579 3.834725,2.350087 5.851491,3.339981 1.159724,0.527145 2.343049,0.994217 3.547784,1.407692 z" />
    <path
       style="fill:#1b1318;fill-opacity:1;stroke-width:0.264583"
       id="path30"
       d="m 66.752149,69.121085 c 0.878044,0.136848 1.753502,0.280734 2.621179,0.473782 0.530255,0.154725 0.275995,0.07843 0.763038,0.228015 0,0 -3.093196,-2.381634 -3.093196,-2.381634 v 0 c -0.476891,-0.125817 -0.226399,-0.06322 -0.751954,-0.185851 -0.897052,-0.181872 -1.802207,-0.319762 -2.69638,-0.516152 z" />
    <rect
       style="fill:#1b1318;fill-opacity:1;stroke-width:0.264583"
       id="rect31"
       width="19.992802"
       height="0"
       x="101.34716"
       y="67.271378" />
    <path
       style="fill:#1b1318;fill-opacity:1;stroke-width:0.227419"
       d="m 97.700672,66.265452 c 0.962025,1.008276 2.05281,1.00405 3.087568,1.430067 0.56659,0.233265 1.12218,0.585771 1.69081,0.794482 3.25102,1.193251 6.55886,1.677228 9.85081,1.906755 0.99644,0.06948 2.56175,0.15481 3.52865,0 0.36981,-0.0592 0.73909,-0.160601 1.10271,-0.317792 0.048,-0.02076 0.0347,-0.242888 0,-0.317791 -0.0368,-0.07945 -0.18379,0.07945 -0.22055,0 -0.0173,-0.03746 0.0219,-0.135212 0,-0.158897 -0.0666,-0.07199 -0.28334,0 -0.36756,0"
       id="path44" />
    <path
       style="fill:#1b1318;fill-opacity:1;stroke-width:0.264583"
       d="m 142.08721,72.301014 -8.9276,-1.63463"
       id="path45" />
    <path
       style="fill:#1b1318;fill-opacity:1;stroke-width:0.264583"
       d="m 129.89035,75.193056 4.27519,-4.275191"
       id="path46" />
    <path
       style="fill:#1b1318;fill-opacity:1;stroke-width:0.264583"
       d="m 128.75868,74.312869 4.65241,-3.897966"
       id="path47" />
    <path
       style="fill:#e06485;fill-opacity:1;stroke-width:0.212303"
       d="m 110.52744,73.640972 c 0.27597,-0.212323 2.94433,-2.278536 3.39116,-2.575627 1.01005,-0.671576 0.45062,-0.175383 1.17386,-0.546345 0.30433,-0.156098 0.62957,-0.298691 0.913,-0.468296 0.19685,-0.117795 0.32487,-0.272453 0.52172,-0.390246 0.30434,0.07805 0.62553,0.135845 0.91301,0.234147 0.2005,0.06856 -0.26086,1.106462 -0.26086,1.24879 0,0.172199 0.0307,0.0015 -0.26086,0.234147 -0.21031,0.167801 -0.32728,0.371821 -0.52171,0.546346 -0.50981,0.457599 -0.33084,0.222717 -1.04344,0.702443 -0.65842,0.443256 -1.6607,0.960796 -2.2173,1.404888 -0.0953,0.07605 -0.10124,0.186402 -0.26086,0.234148 -0.12296,0.03679 -0.26831,0.04126 -0.39128,0.07805 -0.16342,0.0489 -0.12479,0.154409 -0.39128,0.234147 -0.4096,0.12255 -1.83171,-0.308796 -1.56516,-0.468295 0.0307,-0.0184 0.0869,0 0.13043,0 0.13043,-0.07805 0.26086,-0.156099 0.39129,-0.234149 0.2916,-0.174494 0.13788,-0.156098 0.39129,-0.156098"
       id="path48" />
    <path
       style="fill:#e06485;fill-opacity:1;stroke-width:0.207296"
       d="m 116.8683,70.666385 c -1.3739,-1.21737 -2.77581,-2.385937 -4.12174,-3.652104 -0.66868,-0.629054 -0.82015,-1.184657 -1.14005,-1.992058 -0.0222,-0.05597 -0.1852,-0.471327 -0.0877,-0.553348 0.20433,-0.1719 0.93684,-0.221339 1.14006,-0.221339 0.17626,0 1.069,-0.100171 1.22775,0 0.0262,0.01649 -0.0206,0.08458 0,0.110669 0.0206,0.02609 0.0634,-0.02047 0.0877,0 0.0688,0.05788 0.10812,0.160693 0.1754,0.221341 1.33726,1.205413 -0.89468,-1.084746 1.22775,1.106696 0.44137,0.45572 0.76435,1.131664 1.22775,1.549378 0.0752,0.06781 0.19091,0.03779 0.26309,0.11067 0.26984,0.27242 0.42503,0.970542 0.61388,1.328037 0.14298,0.270645 0.12544,1.881387 -0.0877,1.881387"
       id="path49" />
    <text
       xml:space="preserve"
       style="font-size:4.17686px;fill:#ee88c8;fill-opacity:1;stroke-width:0.34807"
       x="115.08565"
       y="57.251144"
       id="text49"
       transform="scale(0.92375127,1.0825425)"><tspan
         sodipodi:role="line"
         id="tspan49"
         style="fill:#ee88c8;fill-opacity:1;stroke-width:0.34807"
         x="115.08565"
         y="57.251144">Pointer</tspan></text>
    <text
       xml:space="preserve"
       style="font-size:4.71412px;fill:#2a0413;fill-opacity:1;stroke-width:0.392843"
       x="87.386932"
       y="46.370152"
       id="text52"
       transform="scale(0.72064136,1.3876528)"><tspan
         sodipodi:role="line"
         id="tspan52"
         style="fill:#2a0413;fill-opacity:1;stroke-width:0.392843"
         x="87.386932"
         y="46.370152">Distance sensor</tspan></text>
    <path
       style="fill:none;fill-rule:evenodd;stroke:#000000;stroke-width:0.264583px;stroke-linecap:butt;stroke-linejoin:miter;stroke-opacity:1"
       d="m 95.50021,62.493225 v 0"
       id="path66"
       inkscape:connector-type="polyline"
       inkscape:connector-curvature="0" />
    <ellipse
       style="fill:#b03352;fill-opacity:1;stroke-width:0.232857"
       id="path71"
       cx="100.15263"
       cy="101.53577"
       rx="55.640347"
       ry="1.948984" />
    <g
       sodipodi:type="inkscape:box3d"
       id="g72"
       style="fill:#b03352;fill-opacity:1"
       inkscape:perspectiveID="#perspective9"
       inkscape:corner0="-0.31737585 : 0.10322618 : 0 : 1"
       inkscape:corner7="-0.32748304 : 0.09839648 : 0.17855457 : 1">
      <path
         sodipodi:type="inkscape:box3dside"
         id="path77"
         style="fill:#e9e9ff;fill-rule:evenodd;stroke:none;stroke-width:1.07248;stroke-linejoin:round"
         inkscape:box3dsidetype="11"
         d="m 169.08373,94.7377 2.26024,-0.740896 v 5.674846 l -2.26024,0.67429 z"
         points="171.34397,93.996804 171.34397,99.67165 169.08373,100.34594 169.08373,94.7377 " />
      <path
         sodipodi:type="inkscape:box3dside"
         id="path72"
         style="fill:#353564;fill-rule:evenodd;stroke:none;stroke-width:1.07248;stroke-linejoin:round"
         inkscape:box3dsidetype="6"
         d="m 155.68533,78.419134 v 7.075196 l 13.3984,14.85161 V 94.7377 Z"
         points="155.68533,85.49433 169.08373,100.34594 169.08373,94.7377 155.68533,78.419134 " />
      <path
         sodipodi:type="inkscape:box3dside"
         id="path73"
         style="fill:#4d4d9f;fill-rule:evenodd;stroke:none;stroke-width:1.07248;stroke-linejoin:round"
         inkscape:box3dsidetype="5"
         d="m 155.68533,78.419134 2.65898,-1.182855 12.99966,16.760525 -2.26024,0.740896 z"
         points="158.34431,77.236279 171.34397,93.996804 169.08373,94.7377 155.68533,78.419134 " />
      <path
         sodipodi:type="inkscape:box3dside"
         id="path76"
         style="fill:#afafde;fill-rule:evenodd;stroke:none;stroke-width:1.07248;stroke-linejoin:round"
         inkscape:box3dsidetype="13"
         d="m 155.68533,85.49433 2.65898,-1.076522 12.99966,15.253842 -2.26024,0.67429 z"
         points="158.34431,84.417808 171.34397,99.67165 169.08373,100.34594 155.68533,85.49433 " />
      <path
         sodipodi:type="inkscape:box3dside"
         id="path75"
         style="fill:#d7d7ff;fill-rule:evenodd;stroke:none;stroke-width:1.07248;stroke-linejoin:round"
         inkscape:box3dsidetype="14"
         d="m 158.34431,77.236279 v 7.181529 l 12.99966,15.253842 v -5.674846 z"
         points="158.34431,84.417808 171.34397,99.67165 171.34397,93.996804 158.34431,77.236279 " />
      <path
         sodipodi:type="inkscape:box3dside"
         id="path74"
         style="fill:#8686bf;fill-rule:evenodd;stroke:none;stroke-width:1.07248;stroke-linejoin:round"
         inkscape:box3dsidetype="3"
         d="m 155.68533,78.419134 2.65898,-1.182855 v 7.181529 l -2.65898,1.076522 z"
         points="158.34431,77.236279 158.34431,84.417808 155.68533,85.49433 155.68533,78.419134 " />
    </g>
    <text
       xml:space="preserve"
       transform="scale(0.26458333)"
       id="text88"
       style="fill:#b03352;fill-opacity:1;white-space:pre;shape-inside:url(#rect88)" />
    <text
       xml:space="preserve"
       style="font-size:3.175px;fill:#3336b0;fill-opacity:1;stroke-width:0.264583"
       x="124.74388"
       y="66.506355"
       id="text89"><tspan
         sodipodi:role="line"
         id="tspan89"
         style="fill:#3336b0;fill-opacity:1;stroke-width:0.264583"
         x="124.74388"
         y="66.506355">Bluetooth</tspan><tspan
         sodipodi:role="line"
         style="fill:#3336b0;fill-opacity:1;stroke-width:0.264583"
         x="124.74388"
         y="70.475105"
         id="tspan94" /></text>
    <path
       style="fill:#3336b0;fill-opacity:1;stroke-width:0.264583"
       d="m 151.95102,74.864107 c -1.07248,1.963515 -3.20851,3.54267 -3.11193,5.95712 0.0233,0.583314 0.10618,0.639657 0.35565,0.889122"
       id="path89" />
    <path
       style="fill:#3336b0;fill-opacity:1;stroke-width:0.264583"
       d="m 147.06085,73.708248 c -0.85364,2.396932 -1.98658,4.775954 -2.48955,7.290803"
       id="path90" />
    <path
       style="fill:#3336b0;fill-opacity:1;stroke-width:0.264583"
       d="m 141.19264,72.196739 c -1.33552,3.399507 -0.81687,1.764774 -1.77825,5.690384 -0.29855,1.219091 0.0152,0.873887 -0.35565,1.244772"
       id="path91" />
    <path
       style="fill:#3336b0;fill-opacity:1;stroke-width:0.264583"
       d="m 135.14661,70.68523 c -1.71657,3.948097 0.0708,0.07929 -2.48955,4.712349 -0.40842,0.73905 0.002,0.711298 -0.35565,0.711298"
       id="path92" />
    <path
       style="fill:#3336b0;fill-opacity:1;stroke-width:0.264583"
       d="m 130.16752,69.973933 c -3.75055,5.357934 -0.19918,0.119253 -3.20084,4.979085 -0.55126,0.892511 -0.53347,0.399174 -0.53347,0.800211"
       id="path93" />
    <text
       xml:space="preserve"
       style="font-size:3.175px;fill:#3336b0;fill-opacity:1;stroke-width:0.264583"
       x="173.6456"
       y="70.596321"
       id="text95"><tspan
         sodipodi:role="line"
         id="tspan95"
         style="stroke-width:0.264583"
         x="173.6456"
         y="70.596321" /></text>
    <text
       xml:space="preserve"
       style="font-size:3.175px;fill:#3336b0;fill-opacity:1;stroke-width:0.264583"
       x="139.85896"
       y="107.4949"
       id="text96"><tspan
         sodipodi:role="line"
         id="tspan96"
         style="stroke-width:0.264583"
         x="139.85896"
         y="107.4949">phone plays music</tspan><tspan
         sodipodi:role="line"
         style="stroke-width:0.264583"
         x="139.85896"
         y="111.46365"
         id="tspan97">music stops and camera phone</tspan><tspan
         sodipodi:role="line"
         style="stroke-width:0.264583"
         x="139.85896"
         y="115.4324"
         id="tspan98">detects movement</tspan></text>
  </g>
</svg>
