<?xml version="1.0" encoding="utf-8"?>
<!-- Generator: Circuit Diagram, cdlibrary.dll 4.0.0.0 -->
<!DOCTYPE svg PUBLIC "-//W3C//DTD SVG 1.1//EN" "http://www.w3.org/Graphics/SVG/1.1/DTD/svg11.dtd">
<svg version="1.1" width="560" height="460" xmlns="http://www.w3.org/2000/svg">
	<text x="130" y="290" style="font-family:Arial;font-size:11px;text-anchor:start" dominant-baseline="middle" transform="rotate(0, 130, 290)">Buzzer</text>
	<text x="420" y="320" style="font-family:Arial;font-size:11px;text-anchor:start" dominant-baseline="middle" transform="rotate(0, 420, 320)">Button</text>
	<text x="130" y="180" style="font-family:Arial;font-size:11px;text-anchor:start" dominant-baseline="middle" transform="rotate(0, 130, 180)">Green LED</text>
	<text x="70" y="180" style="font-family:Arial;font-size:11px;text-anchor:start" dominant-baseline="middle" transform="rotate(0, 70, 180)">Red LED</text>
	<line x1="190" y1="300" x2="230" y2="300" style="stroke:rgb(0, 0, 0);stroke-linecap:square;stroke-width:2" />
	<line x1="190" y1="300" x2="190" y2="410" style="stroke:rgb(0, 0, 0);stroke-linecap:square;stroke-width:2" />
	<line x1="140" y1="410" x2="190" y2="410" style="stroke:rgb(0, 0, 0);stroke-linecap:square;stroke-width:2" />
	<line x1="180" y1="290" x2="230" y2="290" style="stroke:rgb(0, 0, 0);stroke-linecap:square;stroke-width:2" />
	<line x1="180" y1="290" x2="180" y2="400" style="stroke:rgb(0, 0, 0);stroke-linecap:square;stroke-width:2" />
	<line x1="140" y1="400" x2="180" y2="400" style="stroke:rgb(0, 0, 0);stroke-linecap:square;stroke-width:2" />
	<line x1="350" y1="260" x2="400" y2="260" style="stroke:rgb(0, 0, 0);stroke-linecap:square;stroke-width:2" />
	<line x1="400" y1="30" x2="400" y2="260" style="stroke:rgb(0, 0, 0);stroke-linecap:square;stroke-width:2" />
	<line x1="60" y1="30" x2="400" y2="30" style="stroke:rgb(0, 0, 0);stroke-linecap:square;stroke-width:2" />
	<line x1="60" y1="30" x2="60" y2="310" style="stroke:rgb(0, 0, 0);stroke-linecap:square;stroke-width:2" />
	<line x1="60" y1="310" x2="160" y2="310" style="stroke:rgb(0, 0, 0);stroke-linecap:square;stroke-width:2" />
	<line x1="160" y1="310" x2="160" y2="390" style="stroke:rgb(0, 0, 0);stroke-linecap:square;stroke-width:2" />
	<line x1="140" y1="390" x2="160" y2="390" style="stroke:rgb(0, 0, 0);stroke-linecap:square;stroke-width:2" />
	<line x1="350" y1="320" x2="360" y2="320" style="stroke:rgb(0, 0, 0);stroke-linecap:square;stroke-width:2" />
	<line x1="360" y1="320" x2="360" y2="400" style="stroke:rgb(0, 0, 0);stroke-linecap:square;stroke-width:2" />
	<line x1="360" y1="400" x2="420" y2="400" style="stroke:rgb(0, 0, 0);stroke-linecap:square;stroke-width:2" />
	<line x1="400" y1="350" x2="400" y2="390" style="stroke:rgb(0, 0, 0);stroke-linecap:square;stroke-width:2" />
	<line x1="400" y1="390" x2="420" y2="390" style="stroke:rgb(0, 0, 0);stroke-linecap:square;stroke-width:2" />
	<line x1="140" y1="380" x2="150" y2="380" style="stroke:rgb(0, 0, 0);stroke-linecap:square;stroke-width:2" />
	<line x1="150" y1="320" x2="150" y2="380" style="stroke:rgb(0, 0, 0);stroke-linecap:square;stroke-width:2" />
	<line x1="50" y1="320" x2="150" y2="320" style="stroke:rgb(0, 0, 0);stroke-linecap:square;stroke-width:2" />
	<line x1="50" y1="20" x2="50" y2="320" style="stroke:rgb(0, 0, 0);stroke-linecap:square;stroke-width:2" />
	<line x1="50" y1="20" x2="410" y2="20" style="stroke:rgb(0, 0, 0);stroke-linecap:square;stroke-width:2" />
	<line x1="410" y1="20" x2="410" y2="280" style="stroke:rgb(0, 0, 0);stroke-linecap:square;stroke-width:2" />
	<line x1="410" y1="380" x2="420" y2="380" style="stroke:rgb(0, 0, 0);stroke-linecap:square;stroke-width:2" />
	<line x1="410" y1="280" x2="410" y2="380" style="stroke:rgb(0, 0, 0);stroke-linecap:square;stroke-width:2" />
	<line x1="350" y1="280" x2="410" y2="280" style="stroke:rgb(0, 0, 0);stroke-linecap:square;stroke-width:2" />
	<line x1="350" y1="310" x2="370" y2="310" style="stroke:rgb(0, 0, 0);stroke-linecap:square;stroke-width:2" />
	<line x1="370" y1="310" x2="370" y2="350" style="stroke:rgb(0, 0, 0);stroke-linecap:square;stroke-width:2" />
	<line x1="370" y1="350" x2="400" y2="350" style="stroke:rgb(0, 0, 0);stroke-linecap:square;stroke-width:2" />
	<line x1="400" y1="340" x2="400" y2="350" style="stroke:rgb(0, 0, 0);stroke-linecap:square;stroke-width:2" />
	<line x1="400" y1="300" x2="400" y2="310" style="stroke:rgb(0, 0, 0);stroke-linecap:square;stroke-width:2" />
	<line x1="350" y1="300" x2="400" y2="300" style="stroke:rgb(0, 0, 0);stroke-linecap:square;stroke-width:2" />
	<line x1="70" y1="260" x2="130" y2="260" style="stroke:rgb(0, 0, 0);stroke-linecap:square;stroke-width:2" />
	<line x1="70" y1="260" x2="70" y2="270" style="stroke:rgb(0, 0, 0);stroke-linecap:square;stroke-width:2" />
	<line x1="130" y1="270" x2="230" y2="270" style="stroke:rgb(0, 0, 0);stroke-linecap:square;stroke-width:2" />
	<line x1="190" y1="210" x2="190" y2="260" style="stroke:rgb(0, 0, 0);stroke-linecap:square;stroke-width:2" />
	<line x1="190" y1="160" x2="190" y2="180" style="stroke:rgb(0, 0, 0);stroke-linecap:square;stroke-width:2" />
	<line x1="190" y1="80" x2="190" y2="110" style="stroke:rgb(0, 0, 0);stroke-linecap:square;stroke-width:2" />
	<line x1="190" y1="80" x2="220" y2="80" style="stroke:rgb(0, 0, 0);stroke-linecap:square;stroke-width:2" />
	<line x1="220" y1="80" x2="220" y2="250" style="stroke:rgb(0, 0, 0);stroke-linecap:square;stroke-width:2" />
	<line x1="220" y1="250" x2="230" y2="250" style="stroke:rgb(0, 0, 0);stroke-linecap:square;stroke-width:2" />
	<line x1="130" y1="260" x2="230" y2="260" style="stroke:rgb(0, 0, 0);stroke-linecap:square;stroke-width:2" />
	<line x1="130" y1="210" x2="130" y2="260" style="stroke:rgb(0, 0, 0);stroke-linecap:square;stroke-width:2" />
	<line x1="130" y1="160" x2="130" y2="180" style="stroke:rgb(0, 0, 0);stroke-linecap:square;stroke-width:2" />
	<line x1="130" y1="70" x2="130" y2="110" style="stroke:rgb(0, 0, 0);stroke-linecap:square;stroke-width:2" />
	<line x1="130" y1="70" x2="230" y2="70" style="stroke:rgb(0, 0, 0);stroke-linecap:square;stroke-width:2" />
	<line x1="230" y1="70" x2="230" y2="240" style="stroke:rgb(0, 0, 0);stroke-linecap:square;stroke-width:2" />
	<line x1="400" y1="310" x2="400" y2="311" style="stroke:rgb(0, 0, 0);stroke-linecap:square;stroke-width:2" />
	<line x1="400" y1="339" x2="400" y2="340" style="stroke:rgb(0, 0, 0);stroke-linecap:square;stroke-width:2" />
	<ellipse cx="400" cy="314" rx="3" ry="3" style="fill-opacity:0;fill:rgb(0, 0, 0);stroke:rgb(0, 0, 0);stroke-width:2" />
	<ellipse cx="400" cy="336" rx="3" ry="3" style="fill-opacity:0;fill:rgb(0, 0, 0);stroke:rgb(0, 0, 0);stroke-width:2" />
	<line x1="392" y1="313" x2="392" y2="337" style="stroke:rgb(0, 0, 0);stroke-linecap:square;stroke-width:2" />
	<line x1="386" y1="319" x2="386" y2="331" style="stroke:rgb(0, 0, 0);stroke-linecap:square;stroke-width:2" />
	<line x1="386" y1="325" x2="392" y2="325" style="stroke:rgb(0, 0, 0);stroke-linecap:square;stroke-width:2" />
	<line x1="70" y1="270" x2="80" y2="270" style="stroke:rgb(0, 0, 0);stroke-linecap:square;stroke-width:2" />
	<line x1="120" y1="270" x2="130" y2="270" style="stroke:rgb(0, 0, 0);stroke-linecap:square;stroke-width:2" />
	<line x1="80" y1="270" x2="86" y2="270" style="stroke:rgb(0, 0, 0);stroke-linecap:square;stroke-width:2" />
	<line x1="86" y1="270" x2="86" y2="276" style="stroke:rgb(0, 0, 0);stroke-linecap:square;stroke-width:2" />
	<line x1="114" y1="270" x2="120" y2="270" style="stroke:rgb(0, 0, 0);stroke-linecap:square;stroke-width:2" />
	<line x1="114" y1="270" x2="114" y2="276" style="stroke:rgb(0, 0, 0);stroke-linecap:square;stroke-width:2" />
	<path d="M 100,270 A 20,20 90 0 0 80,290 L 120,290 A 20,20 90 0 0 100,270 Z" style="fill-opacity:0;fill:rgb(0, 0, 0);stroke:rgb(0, 0, 0);stroke-linecap:square;stroke-width:2" />
	<text x="480" y="360" style="font-family:Arial;font-size:11px;text-anchor:middle" dominant-baseline="middle" transform="rotate(0, 480, 360)">Arm Servo</text>
	<rect x="430" y="370" width="100" height="40" style="fill-opacity:0;fill:rgb(0, 0, 0);stroke:rgb(0, 0, 0);stroke-width:2" />
	<line x1="420" y1="380" x2="430" y2="380" style="stroke:rgb(0, 0, 0);stroke-linecap:square;stroke-width:2" />
	<text x="434" y="380" style="font-family:Arial;font-size:11px;text-anchor:start" dominant-baseline="middle" transform="rotate(0, 434, 380)">VCC</text>
	<line x1="420" y1="390" x2="430" y2="390" style="stroke:rgb(0, 0, 0);stroke-linecap:square;stroke-width:2" />
	<text x="434" y="390" style="font-family:Arial;font-size:11px;text-anchor:start" dominant-baseline="middle" transform="rotate(0, 434, 390)">GND</text>
	<line x1="420" y1="400" x2="430" y2="400" style="stroke:rgb(0, 0, 0);stroke-linecap:square;stroke-width:2" />
	<text x="434" y="400" style="font-family:Arial;font-size:11px;text-anchor:start" dominant-baseline="middle" transform="rotate(0, 434, 400)">CTRL</text>
	<text x="80" y="360" style="font-family:Arial;font-size:11px;text-anchor:middle" dominant-baseline="middle" transform="rotate(0, 80, 360)">VL53L1X TOF Sensor</text>
	<rect x="30" y="370" width="100" height="50" style="fill-opacity:0;fill:rgb(0, 0, 0);stroke:rgb(0, 0, 0);stroke-width:2" />
	<line x1="130" y1="380" x2="140" y2="380" style="stroke:rgb(0, 0, 0);stroke-linecap:square;stroke-width:2" />
	<text x="126" y="380" style="font-family:Arial;font-size:11px;text-anchor:end" dominant-baseline="middle" transform="rotate(0, 126, 380)">VCC</text>
	<line x1="130" y1="390" x2="140" y2="390" style="stroke:rgb(0, 0, 0);stroke-linecap:square;stroke-width:2" />
	<text x="126" y="390" style="font-family:Arial;font-size:11px;text-anchor:end" dominant-baseline="middle" transform="rotate(0, 126, 390)">GND</text>
	<line x1="130" y1="400" x2="140" y2="400" style="stroke:rgb(0, 0, 0);stroke-linecap:square;stroke-width:2" />
	<text x="126" y="400" style="font-family:Arial;font-size:11px;text-anchor:end" dominant-baseline="middle" transform="rotate(0, 126, 400)">SDA</text>
	<line x1="130" y1="410" x2="140" y2="410" style="stroke:rgb(0, 0, 0);stroke-linecap:square;stroke-width:2" />
	<text x="126" y="410" style="font-family:Arial;font-size:11px;text-anchor:end" dominant-baseline="middle" transform="rotate(0, 126, 410)">SCL</text>
	<line x1="130" y1="110" x2="130" y2="115" style="stroke:rgb(0, 0, 0);stroke-linecap:square;stroke-width:2" />
	<line x1="130" y1="155" x2="130" y2="160" style="stroke:rgb(0, 0, 0);stroke-linecap:square;stroke-width:2" />
	<rect x="122" y="115" width="16" height="40" style="fill-opacity:0;fill:rgb(0, 0, 0);stroke:rgb(0, 0, 0);stroke-width:2" />
	<text x="116" y="135" style="font-family:Arial;font-size:11px;text-anchor:end" dominant-baseline="middle" transform="rotate(0, 116, 135)">100 Ω</text>
	<line x1="190" y1="110" x2="190" y2="115" style="stroke:rgb(0, 0, 0);stroke-linecap:square;stroke-width:2" />
	<line x1="190" y1="155" x2="190" y2="160" style="stroke:rgb(0, 0, 0);stroke-linecap:square;stroke-width:2" />
	<rect x="182" y="115" width="16" height="40" style="fill-opacity:0;fill:rgb(0, 0, 0);stroke:rgb(0, 0, 0);stroke-width:2" />
	<text x="176" y="135" style="font-family:Arial;font-size:11px;text-anchor:end" dominant-baseline="middle" transform="rotate(0, 176, 135)">100 Ω</text>
	<line x1="130" y1="180" x2="130" y2="210" style="stroke:rgb(0, 0, 0);stroke-linecap:square;stroke-width:2" />
	<path d="M 130,202 M 122,202 L 138,202 M 130,202 L 138,187 L 122,187 L 130,202" style="fill-opacity:0;fill:rgb(0, 0, 0);stroke:rgb(0, 0, 0);stroke-linecap:square;stroke-width:2" />
	<path d="M 130,200 M 141,198 L 149,206 M 150,207 L 148,203 L 146,205 L 150,207 L 148,203" style="fill-opacity:0;fill:rgb(0, 0, 0);stroke:rgb(0, 0, 0);stroke-linecap:square;stroke-width:2" />
	<path d="M 130,200 M 134,204 L 142,212 M 143,213 L 141,209 L 139,211 L 143,213 L 141,209" style="fill-opacity:0;fill:rgb(0, 0, 0);stroke:rgb(0, 0, 0);stroke-linecap:square;stroke-width:2" />
	<line x1="190" y1="180" x2="190" y2="210" style="stroke:rgb(0, 0, 0);stroke-linecap:square;stroke-width:2" />
	<path d="M 190,202 M 182,202 L 198,202 M 190,202 L 198,187 L 182,187 L 190,202" style="fill-opacity:0;fill:rgb(0, 0, 0);stroke:rgb(0, 0, 0);stroke-linecap:square;stroke-width:2" />
	<path d="M 190,200 M 201,198 L 209,206 M 210,207 L 208,203 L 206,205 L 210,207 L 208,203" style="fill-opacity:0;fill:rgb(0, 0, 0);stroke:rgb(0, 0, 0);stroke-linecap:square;stroke-width:2" />
	<path d="M 190,200 M 194,204 L 202,212 M 203,213 L 201,209 L 199,211 L 203,213 L 201,209" style="fill-opacity:0;fill:rgb(0, 0, 0);stroke:rgb(0, 0, 0);stroke-linecap:square;stroke-width:2" />
	<text x="290" y="220" style="font-family:Arial;font-size:11px;text-anchor:middle" dominant-baseline="middle" transform="rotate(0, 290, 220)">Raspberry Pi Pico W</text>
	<rect x="240" y="230" width="100" height="210" style="fill-opacity:0;fill:rgb(0, 0, 0);stroke:rgb(0, 0, 0);stroke-width:2" />
	<line x1="230" y1="240" x2="240" y2="240" style="stroke:rgb(0, 0, 0);stroke-linecap:square;stroke-width:2" />
	<text x="244" y="240" style="font-family:Arial;font-size:11px;text-anchor:start" dominant-baseline="middle" transform="rotate(0, 244, 240)">GP0</text>
	<line x1="340" y1="240" x2="350" y2="240" style="stroke:rgb(0, 0, 0);stroke-linecap:square;stroke-width:2" />
	<text x="336" y="240" style="font-family:Arial;font-size:11px;text-anchor:end" dominant-baseline="middle" transform="rotate(0, 336, 240)">VBUS</text>
	<line x1="230" y1="250" x2="240" y2="250" style="stroke:rgb(0, 0, 0);stroke-linecap:square;stroke-width:2" />
	<text x="244" y="250" style="font-family:Arial;font-size:11px;text-anchor:start" dominant-baseline="middle" transform="rotate(0, 244, 250)">GP1</text>
	<line x1="340" y1="250" x2="350" y2="250" style="stroke:rgb(0, 0, 0);stroke-linecap:square;stroke-width:2" />
	<text x="336" y="250" style="font-family:Arial;font-size:11px;text-anchor:end" dominant-baseline="middle" transform="rotate(0, 336, 250)">VSYS</text>
	<line x1="230" y1="260" x2="240" y2="260" style="stroke:rgb(0, 0, 0);stroke-linecap:square;stroke-width:2" />
	<text x="244" y="260" style="font-family:Arial;font-size:11px;text-anchor:start" dominant-baseline="middle" transform="rotate(0, 244, 260)">GND</text>
	<line x1="340" y1="260" x2="350" y2="260" style="stroke:rgb(0, 0, 0);stroke-linecap:square;stroke-width:2" />
	<text x="336" y="260" style="font-family:Arial;font-size:11px;text-anchor:end" dominant-baseline="middle" transform="rotate(0, 336, 260)">GND</text>
	<line x1="230" y1="270" x2="240" y2="270" style="stroke:rgb(0, 0, 0);stroke-linecap:square;stroke-width:2" />
	<text x="244" y="270" style="font-family:Arial;font-size:11px;text-anchor:start" dominant-baseline="middle" transform="rotate(0, 244, 270)">GP2</text>
	<line x1="340" y1="270" x2="350" y2="270" style="stroke:rgb(0, 0, 0);stroke-linecap:square;stroke-width:2" />
	<text x="336" y="270" style="font-family:Arial;font-size:11px;text-anchor:end" dominant-baseline="middle" transform="rotate(0, 336, 270)">3V3_EN</text>
	<line x1="230" y1="280" x2="240" y2="280" style="stroke:rgb(0, 0, 0);stroke-linecap:square;stroke-width:2" />
	<text x="244" y="280" style="font-family:Arial;font-size:11px;text-anchor:start" dominant-baseline="middle" transform="rotate(0, 244, 280)">GP3</text>
	<line x1="340" y1="280" x2="350" y2="280" style="stroke:rgb(0, 0, 0);stroke-linecap:square;stroke-width:2" />
	<text x="336" y="280" style="font-family:Arial;font-size:11px;text-anchor:end" dominant-baseline="middle" transform="rotate(0, 336, 280)">3V3_OUT</text>
	<line x1="230" y1="290" x2="240" y2="290" style="stroke:rgb(0, 0, 0);stroke-linecap:square;stroke-width:2" />
	<text x="244" y="290" style="font-family:Arial;font-size:11px;text-anchor:start" dominant-baseline="middle" transform="rotate(0, 244, 290)">GP4</text>
	<line x1="340" y1="290" x2="350" y2="290" style="stroke:rgb(0, 0, 0);stroke-linecap:square;stroke-width:2" />
	<text x="336" y="290" style="font-family:Arial;font-size:11px;text-anchor:end" dominant-baseline="middle" transform="rotate(0, 336, 290)">ADC_VREF</text>
	<line x1="230" y1="300" x2="240" y2="300" style="stroke:rgb(0, 0, 0);stroke-linecap:square;stroke-width:2" />
	<text x="244" y="300" style="font-family:Arial;font-size:11px;text-anchor:start" dominant-baseline="middle" transform="rotate(0, 244, 300)">GP5</text>
	<line x1="340" y1="300" x2="350" y2="300" style="stroke:rgb(0, 0, 0);stroke-linecap:square;stroke-width:2" />
	<text x="336" y="300" style="font-family:Arial;font-size:11px;text-anchor:end" dominant-baseline="middle" transform="rotate(0, 336, 300)">GP28</text>
	<line x1="230" y1="310" x2="240" y2="310" style="stroke:rgb(0, 0, 0);stroke-linecap:square;stroke-width:2" />
	<text x="244" y="310" style="font-family:Arial;font-size:11px;text-anchor:start" dominant-baseline="middle" transform="rotate(0, 244, 310)">GND</text>
	<line x1="340" y1="310" x2="350" y2="310" style="stroke:rgb(0, 0, 0);stroke-linecap:square;stroke-width:2" />
	<text x="336" y="310" style="font-family:Arial;font-size:11px;text-anchor:end" dominant-baseline="middle" transform="rotate(0, 336, 310)">GND</text>
	<line x1="230" y1="320" x2="240" y2="320" style="stroke:rgb(0, 0, 0);stroke-linecap:square;stroke-width:2" />
	<text x="244" y="320" style="font-family:Arial;font-size:11px;text-anchor:start" dominant-baseline="middle" transform="rotate(0, 244, 320)">GP6</text>
	<line x1="340" y1="320" x2="350" y2="320" style="stroke:rgb(0, 0, 0);stroke-linecap:square;stroke-width:2" />
	<text x="336" y="320" style="font-family:Arial;font-size:11px;text-anchor:end" dominant-baseline="middle" transform="rotate(0, 336, 320)">GP27</text>
	<line x1="230" y1="330" x2="240" y2="330" style="stroke:rgb(0, 0, 0);stroke-linecap:square;stroke-width:2" />
	<text x="244" y="330" style="font-family:Arial;font-size:11px;text-anchor:start" dominant-baseline="middle" transform="rotate(0, 244, 330)">GP7</text>
	<line x1="340" y1="330" x2="350" y2="330" style="stroke:rgb(0, 0, 0);stroke-linecap:square;stroke-width:2" />
	<text x="336" y="330" style="font-family:Arial;font-size:11px;text-anchor:end" dominant-baseline="middle" transform="rotate(0, 336, 330)">GP26</text>
	<line x1="230" y1="340" x2="240" y2="340" style="stroke:rgb(0, 0, 0);stroke-linecap:square;stroke-width:2" />
	<text x="244" y="340" style="font-family:Arial;font-size:11px;text-anchor:start" dominant-baseline="middle" transform="rotate(0, 244, 340)">GP8</text>
	<line x1="340" y1="340" x2="350" y2="340" style="stroke:rgb(0, 0, 0);stroke-linecap:square;stroke-width:2" />
	<text x="336" y="340" style="font-family:Arial;font-size:11px;text-anchor:end" dominant-baseline="middle" transform="rotate(0, 336, 340)">RUN</text>
	<line x1="230" y1="350" x2="240" y2="350" style="stroke:rgb(0, 0, 0);stroke-linecap:square;stroke-width:2" />
	<text x="244" y="350" style="font-family:Arial;font-size:11px;text-anchor:start" dominant-baseline="middle" transform="rotate(0, 244, 350)">GP9</text>
	<line x1="340" y1="350" x2="350" y2="350" style="stroke:rgb(0, 0, 0);stroke-linecap:square;stroke-width:2" />
	<text x="336" y="350" style="font-family:Arial;font-size:11px;text-anchor:end" dominant-baseline="middle" transform="rotate(0, 336, 350)">GP22</text>
	<line x1="230" y1="360" x2="240" y2="360" style="stroke:rgb(0, 0, 0);stroke-linecap:square;stroke-width:2" />
	<text x="244" y="360" style="font-family:Arial;font-size:11px;text-anchor:start" dominant-baseline="middle" transform="rotate(0, 244, 360)">GND</text>
	<line x1="340" y1="360" x2="350" y2="360" style="stroke:rgb(0, 0, 0);stroke-linecap:square;stroke-width:2" />
	<text x="336" y="360" style="font-family:Arial;font-size:11px;text-anchor:end" dominant-baseline="middle" transform="rotate(0, 336, 360)">GND</text>
	<line x1="230" y1="370" x2="240" y2="370" style="stroke:rgb(0, 0, 0);stroke-linecap:square;stroke-width:2" />
	<text x="244" y="370" style="font-family:Arial;font-size:11px;text-anchor:start" dominant-baseline="middle" transform="rotate(0, 244, 370)">GP10</text>
	<line x1="340" y1="370" x2="350" y2="370" style="stroke:rgb(0, 0, 0);stroke-linecap:square;stroke-width:2" />
	<text x="336" y="370" style="font-family:Arial;font-size:11px;text-anchor:end" dominant-baseline="middle" transform="rotate(0, 336, 370)">GP21</text>
	<line x1="230" y1="380" x2="240" y2="380" style="stroke:rgb(0, 0, 0);stroke-linecap:square;stroke-width:2" />
	<text x="244" y="380" style="font-family:Arial;font-size:11px;text-anchor:start" dominant-baseline="middle" transform="rotate(0, 244, 380)">GP11</text>
	<line x1="340" y1="380" x2="350" y2="380" style="stroke:rgb(0, 0, 0);stroke-linecap:square;stroke-width:2" />
	<text x="336" y="380" style="font-family:Arial;font-size:11px;text-anchor:end" dominant-baseline="middle" transform="rotate(0, 336, 380)">GP20</text>
	<line x1="230" y1="390" x2="240" y2="390" style="stroke:rgb(0, 0, 0);stroke-linecap:square;stroke-width:2" />
	<text x="244" y="390" style="font-family:Arial;font-size:11px;text-anchor:start" dominant-baseline="middle" transform="rotate(0, 244, 390)">GP12</text>
	<line x1="340" y1="390" x2="350" y2="390" style="stroke:rgb(0, 0, 0);stroke-linecap:square;stroke-width:2" />
	<text x="336" y="390" style="font-family:Arial;font-size:11px;text-anchor:end" dominant-baseline="middle" transform="rotate(0, 336, 390)">GP19</text>
	<line x1="230" y1="400" x2="240" y2="400" style="stroke:rgb(0, 0, 0);stroke-linecap:square;stroke-width:2" />
	<text x="244" y="400" style="font-family:Arial;font-size:11px;text-anchor:start" dominant-baseline="middle" transform="rotate(0, 244, 400)">GP13</text>
	<line x1="340" y1="400" x2="350" y2="400" style="stroke:rgb(0, 0, 0);stroke-linecap:square;stroke-width:2" />
	<text x="336" y="400" style="font-family:Arial;font-size:11px;text-anchor:end" dominant-baseline="middle" transform="rotate(0, 336, 400)">GP18</text>
	<line x1="230" y1="410" x2="240" y2="410" style="stroke:rgb(0, 0, 0);stroke-linecap:square;stroke-width:2" />
	<text x="244" y="410" style="font-family:Arial;font-size:11px;text-anchor:start" dominant-baseline="middle" transform="rotate(0, 244, 410)">GND</text>
	<line x1="340" y1="410" x2="350" y2="410" style="stroke:rgb(0, 0, 0);stroke-linecap:square;stroke-width:2" />
	<text x="336" y="410" style="font-family:Arial;font-size:11px;text-anchor:end" dominant-baseline="middle" transform="rotate(0, 336, 410)">GND</text>
	<line x1="230" y1="420" x2="240" y2="420" style="stroke:rgb(0, 0, 0);stroke-linecap:square;stroke-width:2" />
	<text x="244" y="420" style="font-family:Arial;font-size:11px;text-anchor:start" dominant-baseline="middle" transform="rotate(0, 244, 420)">GP14</text>
	<line x1="340" y1="420" x2="350" y2="420" style="stroke:rgb(0, 0, 0);stroke-linecap:square;stroke-width:2" />
	<text x="336" y="420" style="font-family:Arial;font-size:11px;text-anchor:end" dominant-baseline="middle" transform="rotate(0, 336, 420)">GP17</text>
	<line x1="230" y1="430" x2="240" y2="430" style="stroke:rgb(0, 0, 0);stroke-linecap:square;stroke-width:2" />
	<text x="244" y="430" style="font-family:Arial;font-size:11px;text-anchor:start" dominant-baseline="middle" transform="rotate(0, 244, 430)">GP15</text>
	<line x1="340" y1="430" x2="350" y2="430" style="stroke:rgb(0, 0, 0);stroke-linecap:square;stroke-width:2" />
	<text x="336" y="430" style="font-family:Arial;font-size:11px;text-anchor:end" dominant-baseline="middle" transform="rotate(0, 336, 430)">GP16</text>
	<ellipse cx="400" cy="350" rx="2" ry="2" style="fill-opacity:1;fill:rgb(0, 0, 0);stroke:rgb(0, 0, 0);stroke-width:2" />
	<ellipse cx="410" cy="280" rx="2" ry="2" style="fill-opacity:1;fill:rgb(0, 0, 0);stroke:rgb(0, 0, 0);stroke-width:2" />
	<ellipse cx="400" cy="300" rx="2" ry="2" style="fill-opacity:1;fill:rgb(0, 0, 0);stroke:rgb(0, 0, 0);stroke-width:2" />
	<ellipse cx="130" cy="260" rx="2" ry="2" style="fill-opacity:1;fill:rgb(0, 0, 0);stroke:rgb(0, 0, 0);stroke-width:2" />
	<ellipse cx="190" cy="260" rx="2" ry="2" style="fill-opacity:1;fill:rgb(0, 0, 0);stroke:rgb(0, 0, 0);stroke-width:2" />
</svg>